<svg xmlns="http://www.w3.org/2000/svg" width="64" height="64" viewBox="0 0 64 64"><path style="fill:#1c3aa9;fill-opacity:1;fill-rule:nonzero;stroke:none;stroke-width:1.78826" d="M64 32a44 44 0 0 0 0-1V5l-7 7a32 32 0 0 0-50 1l11 12a16 16 0 0 1 5-6c2-1 5-3 9-3h1a15 16 0 0 1 12 8l-8 8h27"/><path style="fill:#4285f4;fill-opacity:1;fill-rule:nonzero;stroke:none;stroke-width:1.78826" d="M32 0a44 44 0 0 0-2 0H5l7 7A32 32 0 0 0 0 32c0 10 5 20 13 26l11-12a16 16 0 0 1-5-5c-1-2-3-5-3-9v-1a15 16 0 0 1 8-12l8 8V0"/><path style="fill:#ababab;fill-opacity:1;fill-rule:nonzero;stroke:none;stroke-width:1.78826" d="M0 32v27l7-7a32 32 0 0 0 50-1L46 39a16 16 0 0 1-5 6c-2 1-5 3-9 3h-1a15 16 0 0 1-12-8l8-8H0"/></svg>
